<svg version="1.2" xmlns="http://www.w3.org/2000/svg" viewBox="0 0 411 111" width="411" height="111"><style>.a{fill:#0d3073}</style><path class="a" d="m61.2 71.5h-37.9l-6 17.4h-17.3l31.1-87h22.6l31.1 87h-17.8zm-4.9-14.2l-3.4-10.1c-3.8-11-7.8-21.9-10.6-32.1-3 10.2-6.9 21.3-10.7 32.3l-3.3 9.9z"/><path class="a" d="m91.6 9.5c-0.1-1.9 0.5-3.7 1.5-5.3 1-1.5 2.5-2.8 4.2-3.5 1.7-0.7 3.6-1 5.5-0.6 1.8 0.3 3.5 1.2 4.9 2.6 1.3 1.3 2.2 3 2.6 4.8 0.4 1.8 0.2 3.8-0.5 5.5-0.7 1.7-2 3.2-3.5 4.3-1.6 1-3.4 1.6-5.3 1.6-1.2 0-2.5-0.3-3.6-0.7-1.1-0.5-2.2-1.2-3.1-2-0.8-0.9-1.5-1.9-2-3.1-0.5-1.1-0.7-2.4-0.7-3.6zm17.4 79.4h-16v-62.7h16z"/><path class="a" d="m160.9 27.4l-2.8 13.8c-2.6-0.8-5.3-1.2-8-1.2-8.4 0-13.7 6.7-13.7 18v30.9h-15.9v-62.7h14.8v9.3c2.9-6.1 8-10 15.7-10 3.4 0 6.1 0.8 9.9 1.9z"/><path class="a" d="m241.6 88.9h-17.2v-38.5h-38.9v38.5h-17.1v-87h17.1v34.1h38.9v-34.1h17.2z"/><path class="a" d="m302.2 68.8l8.9 9.8c-9.1 9.3-17.8 12.2-27.9 12.2-20.2 0-32.9-13-32.9-32.9 0-19.4 11.8-33.7 31.5-33.7 19.1 0 29.3 12 29.3 31.3 0 1.9-0.1 4.9-0.2 6.2h-45c1.4 9.1 6.8 15.7 17.7 15.7 7.4 0 11.3-2.5 18.6-8.6zm-35.9-18.5h29.3c-0.5-8.3-5.5-13.6-14.2-13.6-8.5 0-13.4 5.5-15.1 13.6z"/><path class="a" d="m337.3 88.9h-15.9v-87h15.9z"/><path class="a" d="m410.9 57.6c0 20.3-11.8 33.1-27.8 33.1-8.5 0-14.6-3-18.7-8.3v28.6h-16v-84.7h14.8v8.2c4.2-6.2 10.7-10 20-10 16 0 27.7 12.8 27.7 33.1zm-16.2 0c0-11.8-5.8-19.4-15.1-19.4-9.3 0-15.9 7.3-15.9 19.4 0 12.2 6.9 19.2 15.7 19.2 9.1 0 15.4-7.4 15.4-19.2z"/></svg>