<?xml version="1.0" standalone="no"?>
<!DOCTYPE svg PUBLIC "-//W3C//DTD SVG 20010904//EN"
 "http://www.w3.org/TR/2001/REC-SVG-20010904/DTD/svg10.dtd">
<svg version="1.0" xmlns="http://www.w3.org/2000/svg"
 width="642.000000pt" height="642.000000pt" viewBox="0 0 642.000000 642.000000"
 preserveAspectRatio="xMidYMid meet">
<metadata>
Created by potrace 1.10, written by Peter Selinger 2001-2011
</metadata>
<g transform="translate(0.000000,642.000000) scale(0.100000,-0.100000)"
fill="#cc017b" stroke="none">
<path d="M0 3210 l0 -3210 3210 0 3210 0 0 3210 0 3210 -3210 0 -3210 0 0
-3210z m3465 2202 c39 -7 104 -16 145 -22 160 -24 195 -31 204 -40 6 -6 21
-10 36 -10 14 0 38 -7 54 -15 15 -8 35 -15 43 -15 8 0 27 -6 41 -14 15 -7 52
-25 82 -40 127 -60 210 -117 303 -208 71 -70 170 -199 183 -240 4 -10 9 -18
13 -18 6 0 27 -43 66 -135 7 -16 21 -57 30 -90 9 -33 22 -76 28 -95 26 -84 30
-254 36 -1460 6 -1192 7 -1278 24 -1303 9 -14 17 -31 17 -37 0 -18 62 -70 109
-90 58 -26 224 -29 259 -4 18 12 26 13 37 4 12 -10 15 -51 15 -224 0 -116 -4
-216 -8 -222 -17 -27 -303 -51 -430 -36 -155 17 -181 24 -252 64 -8 4 -25 12
-38 18 -43 19 -127 114 -159 180 -54 113 -56 124 -79 373 -4 37 -9 67 -13 66
-3 0 -23 -26 -43 -57 -136 -210 -397 -468 -553 -547 -22 -11 -46 -26 -53 -32
-7 -7 -22 -13 -31 -13 -10 0 -24 -7 -31 -15 -7 -8 -19 -15 -26 -15 -8 0 -22
-4 -32 -10 -33 -19 -135 -52 -217 -70 -27 -7 -75 -18 -106 -26 -69 -17 -759
-20 -824 -3 -22 6 -67 15 -99 20 -33 5 -64 13 -70 18 -6 5 -24 11 -41 14 -83
15 -243 91 -364 172 -72 48 -199 167 -229 213 -18 30 -23 36 -52 71 -11 13
-20 30 -20 37 0 7 -4 14 -8 16 -12 5 -82 147 -82 166 0 9 -7 26 -15 36 -8 11
-15 29 -15 40 0 12 -7 39 -15 61 -11 31 -14 104 -14 340 0 236 3 309 14 340 8
22 15 46 15 53 0 8 6 28 14 45 7 18 21 52 32 77 10 25 24 52 31 61 7 8 13 19
13 22 0 35 253 307 286 307 8 0 14 4 14 8 0 5 10 14 23 21 12 6 36 20 52 31
32 20 160 84 210 105 17 7 47 20 68 29 21 9 46 16 57 16 10 0 21 4 25 9 3 5
20 12 38 16 17 4 52 13 77 20 116 36 154 45 182 45 16 0 38 4 48 10 10 5 52
14 92 19 206 27 248 33 303 43 33 6 98 14 145 18 79 7 150 16 324 41 38 5 110
12 160 15 50 3 109 10 131 15 22 5 72 14 110 19 133 16 212 43 280 95 64 48
80 68 114 140 38 80 45 126 45 295 1 220 -21 314 -109 470 -38 68 -156 177
-240 223 -40 22 -112 52 -155 65 -19 6 -51 17 -70 23 -125 42 -590 63 -770 34
-107 -17 -190 -38 -247 -62 -17 -7 -37 -13 -45 -13 -7 0 -22 -7 -32 -15 -11
-8 -26 -15 -33 -15 -16 0 -158 -86 -198 -120 -83 -71 -148 -154 -195 -250 -12
-25 -26 -53 -31 -62 -5 -10 -9 -25 -9 -34 0 -9 -6 -30 -14 -47 -18 -42 -38
-155 -43 -245 -4 -64 -7 -74 -26 -81 -30 -11 -498 -8 -516 3 -10 7 -12 22 -7
65 4 31 11 91 16 133 5 42 13 86 19 97 6 11 11 30 11 43 0 61 134 390 170 418
3 3 17 23 30 45 33 54 52 76 145 171 78 78 165 154 179 154 3 0 25 14 48 30
22 17 47 30 55 30 7 0 13 3 13 8 0 6 45 29 135 67 17 7 41 18 55 24 54 23 145
51 167 51 12 0 24 4 28 9 3 6 27 13 53 16 26 3 63 10 83 15 20 6 78 15 130 21
52 6 121 15 154 19 82 11 454 5 540 -8z"/>
<path d="M4157 3341 c-10 -17 -24 -31 -32 -31 -7 0 -15 -4 -17 -8 -6 -14 -88
-52 -113 -52 -13 0 -26 -4 -29 -9 -4 -5 -25 -12 -49 -16 -23 -4 -61 -13 -85
-21 -23 -8 -62 -14 -87 -14 -24 0 -56 -5 -70 -10 -15 -6 -59 -14 -99 -19 -93
-12 -206 -29 -281 -42 -33 -6 -94 -15 -135 -19 -111 -12 -226 -29 -305 -45
-38 -8 -106 -21 -150 -30 -44 -9 -100 -22 -125 -30 -25 -9 -55 -15 -67 -15
-12 0 -24 -4 -27 -9 -4 -5 -24 -12 -47 -16 -22 -4 -53 -13 -67 -21 -15 -8 -31
-14 -37 -14 -17 0 -205 -98 -240 -125 -19 -14 -36 -25 -39 -25 -17 0 -153
-134 -167 -165 -5 -11 -13 -27 -19 -35 -43 -68 -63 -162 -67 -309 -3 -102 0
-144 11 -179 9 -25 16 -54 16 -64 0 -22 56 -138 95 -198 42 -63 110 -134 179
-188 61 -47 218 -132 243 -132 8 0 29 -6 46 -14 18 -7 59 -19 92 -27 78 -17
436 -24 487 -9 21 6 66 15 100 20 67 9 143 27 168 40 9 4 30 11 49 15 18 4 44
13 59 21 15 8 32 14 37 14 6 0 50 20 97 44 228 118 367 239 499 436 59 87 139
254 139 288 0 9 6 29 14 43 7 14 16 53 20 87 4 34 11 74 17 89 5 17 8 189 7
426 -3 389 -3 397 -21 368z"/>
</g>
</svg>
