<svg height="94.640762" viewBox="0 0 350 94.640762" width="350" xmlns="http://www.w3.org/2000/svg"><path d="m37.1662 7.06752c-2.5078 0-4.7865.96551-6.4167 2.7183-1.6074 1.72848-2.4925 4.11308-2.4925 6.71458 0 5.3776 3.97 9.4329 9.235 9.4329 2.8926 0 5.6209-1.1898 7.2983-3.1828l.0746-.0886-2.791-2.8984-.0909.1098c-.6597.7975-2.1202 2.1353-4.491 2.1353-2.5371 0-4.5031-1.721-4.9342-4.2981h13.4277v-1.2101-.0055c-.2453-5.7269-3.707-9.42738-8.8193-9.42738zm-4.4805 7.32088c.6439-2.054 2.4137-3.4222 4.4532-3.4222 2.3039 0 3.8228 1.2135 4.2921 3.4222zm21.6168-7.5452v.65767h4.1003v3.75533h-4.1003v14.4757h-4.1993v-14.4757h-3.1685v-3.75533h3.1685v-1.17468c0-4.10904 3.2252-6.32619 6.2596-6.32619 1.5435 0 3.1119.45422 4.4163 1.27894l.0986.06227-1.7734 3.38975c-.6571-.44629-1.4626-.8229-2.1599-.8229-.7942 0-2.6419.286-2.6419 2.93514zm36.4231 9.2904c1.9317 1.1368 4.859 5.284 5.1933 9.4597l.0108.1385h-4.2163l-.0108-.1163c-.3065-3.2653-3.2016-6.7284-4.4148-7.4084-1.2133.68-4.1085 4.1431-4.4151 7.4084l-.011.1163h-4.216l.011-.1385c.1609-2.0091.9305-4.1964 2.1677-6.1586.94-1.4914 2.1019-2.7533 3.026-3.3009-1.7792-1.0754-4.4345-4.7693-4.856-8.58606l-.005-.04706h4.3408c.0538 2.92472 2.563 5.68732 3.9576 6.57232 1.3945-.885 3.9037-3.6476 3.9575-6.57232h4.3408l-.0053.04706c-.421 3.81656-3.076 7.51006-4.8552 8.58586zm-22.1988-9.06608c-5.2248 0-9.3177 4.14478-9.3177 9.43608 0 5.2912 4.0929 9.436 9.3177 9.436 5.2246 0 9.3176-4.1448 9.3176-9.436 0-5.2913-4.093-9.43608-9.3176-9.43608zm0 14.96388c-2.995 0-5.1687-2.3246-5.1687-5.5278 0-3.2031 2.1737-5.528 5.1687-5.528 2.9745 0 5.1334 2.3249 5.1334 5.528 0 3.2032-2.1589 5.5278-5.1334 5.5278zm-41.3963-14.53072-4.6608 16.10622c-.4594 1.5869-1.6144 2.326-2.9835 2.326-1.4338 0-2.5088-.9345-2.9588-2.3377l-2.9622-9.2447-2.9622 9.2447c-.4502 1.4032-1.52518 2.3377-2.95871 2.3377-1.3691 0-2.52433-.7391-2.9835-2.326l-4.66079-16.10622h4.51446l3.15467 12.83142 3.02267-9.8292c.6705-2.18036 1.4298-2.7222 2.8734-2.7222 1.4434 0 2.2027.54184 2.8734 2.7222l3.0227 9.8292 3.1547-12.83142z" fill="#501e96" transform="scale(3.6485051)"/></svg>